# xmcd
#
# Track frame offsets:
# 150
# 12017
# 27127
# 42858
# 60107
# 74620
# 87869
# 104668
# 118985
# 129180
# 144197
# 159755
# 175616
# 192084
# 205989
# 224150
# 236809
# 249559
#
# Disc length: 3509 seconds
#
#
# Revision: 1
# Processed by: cddbd v1.5.1PL0 Copyright (c) Steve Scherf et al.
# Submitted via: FreeRIP 2.70 
#
DISCID=f40db312
DTITLE=moda de viola - boate azul
DYEAR=1999
DGENRE=sertanejo
TTITLE0=amigos de bar - tedoro e sampaio
TTITLE1=boate azul - joaquim e manuel
TTITLE2=garçon - reginaldo rossi
TTITLE3=caro amigo - marcinho e chitaozinho
TTITLE4=a cruz que carrego - lourenço e lourival
TTITLE5=dama de vermelho - dalvan
TTITLE6=amor a três - chitaozinho e xororo
TTITLE7=casaco verde - teodoro e sampaio
TTITLE8=estrada da vida - milionario e jose rico
TTITLE9=a lua e testemunha - pedro bento e ze
TTITLE10=dama vestido longo - barrerito
TTITLE11=blusa vermelha - trio parada dura
TTITLE12=meu reino encantado - daniel
TTITLE13=vestido de seda - teodoro e sampaio
TTITLE14=magoa de boiadeiro - daniel e pedro bento
TTITLE15=nasci pra te amar - milionario e jose rico
TTITLE16=mulher coracao de pedra - canario e passarinho
TTITLE17=minha serenata - chico rei e parana
EXTD=
EXTT0=
EXTT1=
EXTT2=
EXTT3=
EXTT4=
EXTT5=
EXTT6=
EXTT7=
EXTT8=
EXTT9=
EXTT10=
EXTT11=
EXTT12=
EXTT13=
EXTT14=
EXTT15=
EXTT16=
EXTT17=
PLAYORDER=
